<svg width="64" height="64" viewBox="0 0 64 64" fill="none" xmlns="http://www.w3.org/2000/svg">
<rect width="64" height="64" fill="#1E1E1E"/>
<g clip-path="url(#clip0_0_1)">
<path fill-rule="evenodd" clip-rule="evenodd" d="M49.4782 34.002C49.3979 25.8995 56.0866 22.0113 56.3854 21.8188C52.6259 16.3195 46.7687 15.5636 44.6817 15.4786C39.6974 14.9754 34.9575 18.4148 32.4252 18.4148C29.8999 18.4148 25.9975 15.5541 21.8648 15.6298C16.4328 15.7101 11.4248 18.7892 8.6245 23.6543C2.981 33.4457 7.181 47.958 12.6816 55.8976C15.3686 59.7858 18.573 64.1536 22.7813 63.9976C26.8325 63.8382 28.3656 61.3732 33.2661 61.3732C38.1654 61.3732 39.5414 63.9977 43.8301 63.9138C48.1907 63.8335 50.9533 59.95 53.6226 56.0488C56.7113 51.5368 57.9774 47.1738 58.0542 46.9494C57.9573 46.9057 49.5513 43.686 49.4663 34.0055L49.4782 34.002ZM41.423 10.2178C43.6553 7.50949 45.1636 3.74999 44.7514 -0.00241089C41.5352 0.128689 37.6351 2.14129 35.3261 4.84609C33.2532 7.24729 31.4425 11.0741 31.9268 14.7497C35.5186 15.0297 39.1859 12.9249 41.4194 10.2225L41.423 10.2178Z" fill="white"/>
</g>
<defs>
<clipPath id="clip0_0_1">
<rect width="64" height="64" fill="white"/>
</clipPath>
</defs>
</svg>
