<svg width="975" height="675" viewBox="0 0 975 675" fill="none" xmlns="http://www.w3.org/2000/svg">

<g clip-path="url(#clip0_0_1)">
<path d="M210.677 511.789C209.54 511.791 208.45 512.243 207.647 513.047C206.843 513.851 206.39 514.941 206.389 516.077V662.322C206.39 663.459 206.843 664.549 207.647 665.352C208.45 666.156 209.54 666.608 210.677 666.61H709.346C710.483 666.608 711.572 666.156 712.376 665.352C713.18 664.549 713.632 663.459 713.634 662.322V516.077C713.632 514.94 713.18 513.851 712.376 513.047C711.572 512.243 710.483 511.791 709.346 511.789L210.677 511.789Z" fill="#262626"/>
<path d="M217.134 655.865H702.888V522.535H217.134V655.865Z" fill="#0F0F0F"/>
<path d="M641.574 628.205C640.641 628.204 639.716 628.386 638.854 628.743C637.991 629.099 637.207 629.622 636.546 630.282C635.886 630.942 635.362 631.725 635.005 632.587C634.647 633.45 634.463 634.374 634.463 635.307C634.463 636.241 634.647 637.165 635.005 638.027C635.362 638.89 635.886 639.673 636.546 640.333C637.207 640.992 637.991 641.515 638.854 641.872C639.716 642.228 640.641 642.411 641.574 642.41H669.985C671.868 642.41 673.675 641.662 675.007 640.33C676.339 638.998 677.087 637.191 677.087 635.307C677.087 633.424 676.339 631.617 675.007 630.285C673.675 628.953 671.868 628.205 669.985 628.205H641.574Z" fill="#00D492"/>
<path d="M677.087 614.428H349.122V616.296H677.087V614.428Z" fill="#262626"/>
<path d="M280.567 630.569C303.414 630.569 321.936 612.047 321.936 589.2C321.936 566.352 303.414 547.83 280.567 547.83C257.719 547.83 239.198 566.352 239.198 589.2C239.198 612.047 257.719 630.569 280.567 630.569Z" fill="#00D492"/>
<path d="M349.64 603.993L348.604 602.438L382.684 579.717L406.054 590.935L439.669 569.459L506.537 597.983L559.787 571.825L611.495 592.788L676.468 535.241L677.707 536.64L611.867 594.956L559.86 573.871L506.591 600.038L439.843 571.565L406.184 593.071L382.835 581.864L349.64 603.993Z" fill="#262626"/>
<path d="M355.195 629.182C354.397 629.181 353.607 629.337 352.869 629.642C352.131 629.947 351.461 630.394 350.896 630.958C350.331 631.522 349.883 632.192 349.577 632.929C349.271 633.667 349.114 634.457 349.114 635.255C349.114 636.053 349.271 636.844 349.577 637.581C349.883 638.319 350.331 638.988 350.896 639.552C351.461 640.117 352.131 640.564 352.869 640.869C353.607 641.173 354.397 641.33 355.195 641.329H418.733C420.342 641.327 421.885 640.686 423.022 639.547C424.16 638.408 424.798 636.865 424.798 635.255C424.798 633.646 424.16 632.102 423.022 630.963C421.885 629.825 420.342 629.184 418.733 629.182H355.195Z" fill="#262626"/>
<path d="M296.367 570.692H302.831L289.381 584.003C287.031 586.319 283.864 587.618 280.565 587.618C277.266 587.618 274.099 586.319 271.749 584.003L258.301 570.692H264.765L274.982 580.804C276.471 582.271 278.476 583.094 280.566 583.094C282.656 583.094 284.661 582.271 286.149 580.804L296.367 570.692ZM264.683 607.707H258.219L271.751 594.314C274.101 591.998 277.268 590.699 280.567 590.699C283.866 590.699 287.033 591.998 289.382 594.314L302.915 607.707H296.451L286.149 597.513C284.661 596.046 282.656 595.223 280.566 595.223C278.476 595.223 276.471 596.046 274.982 597.513L264.683 607.707Z" fill="white"/>
<path d="M275.612 43.3543C274.475 43.3556 273.386 43.8078 272.582 44.6116C271.778 45.4155 271.326 46.5053 271.324 47.6421V193.887C271.326 195.024 271.778 196.113 272.582 196.917C273.386 197.721 274.475 198.173 275.612 198.175H774.281C775.418 198.173 776.508 197.721 777.311 196.917C778.115 196.113 778.567 195.024 778.569 193.887V47.6421C778.567 46.5053 778.115 45.4154 777.311 44.6116C776.508 43.8078 775.418 43.3556 774.281 43.3542L275.612 43.3543Z" fill="#262626"/>
<path d="M282.069 187.429H767.823V54.0995H282.069V187.429Z" fill="#0F0F0F"/>
<path d="M706.509 159.77C704.626 159.77 702.819 160.518 701.487 161.85C700.155 163.182 699.407 164.988 699.407 166.872C699.407 168.756 700.155 170.563 701.487 171.895C702.819 173.227 704.626 173.975 706.509 173.975H734.92C736.804 173.975 738.61 173.227 739.942 171.895C741.274 170.563 742.023 168.756 742.023 166.872C742.023 164.988 741.274 163.182 739.942 161.85C738.61 160.518 736.804 159.77 734.92 159.77H706.509Z" fill="#00D492"/>
<path d="M742.023 145.993H414.057V147.861H742.023V145.993Z" fill="#262626"/>
<path d="M345.502 162.134C368.349 162.134 386.871 143.612 386.871 120.764C386.871 97.9169 368.349 79.3953 345.502 79.3953C322.654 79.3953 304.133 97.9169 304.133 120.764C304.133 143.612 322.654 162.134 345.502 162.134Z" fill="#00D492"/>
<path d="M414.575 135.557L413.539 134.002L447.619 111.282L470.989 122.5L504.604 101.024L505.058 101.217L571.472 129.548L624.722 103.39L676.43 124.353L741.403 66.805L742.642 68.204L676.802 126.52L624.795 105.436L571.527 131.603L504.779 103.13L471.119 124.635L447.77 113.427L414.575 135.557Z" fill="#262626"/>
<path d="M420.13 160.747C418.521 160.749 416.978 161.389 415.841 162.528C414.704 163.667 414.065 165.211 414.065 166.82C414.065 168.429 414.704 169.973 415.841 171.112C416.978 172.251 418.521 172.891 420.13 172.893H483.668C485.279 172.893 486.824 172.254 487.963 171.115C489.102 169.976 489.741 168.431 489.741 166.82C489.741 165.209 489.102 163.664 487.963 162.525C486.824 161.386 485.279 160.747 483.668 160.747H420.13Z" fill="#262626"/>
<path d="M362.147 115.936C362.92 110.759 358.979 107.976 353.589 106.119L355.337 99.1067L351.067 98.0429L349.365 104.871C348.244 104.591 347.092 104.327 345.946 104.066L347.661 97.1931L343.394 96.1292L341.645 103.14C340.716 102.928 339.804 102.719 338.919 102.499L338.924 102.477L333.037 101.007L331.901 105.566C331.901 105.566 335.069 106.292 335.002 106.337C335.592 106.408 336.132 106.708 336.504 107.172C336.876 107.636 337.051 108.228 336.991 108.82L334.999 116.809C335.15 116.846 335.298 116.894 335.443 116.951L334.993 116.839L332.201 128.031C332.139 128.226 332.04 128.407 331.908 128.564C331.776 128.721 331.615 128.85 331.433 128.944C331.251 129.039 331.053 129.096 330.849 129.113C330.645 129.13 330.439 129.107 330.244 129.045C330.287 129.107 327.142 128.27 327.142 128.27L325.022 133.158L330.579 134.543C331.612 134.802 332.625 135.073 333.621 135.328L331.854 142.422L336.118 143.486L337.869 136.468C339.032 136.784 340.163 137.076 341.269 137.351L339.526 144.336L343.794 145.4L345.561 138.32C352.84 139.698 358.315 139.142 360.616 132.56C362.473 127.259 360.525 124.201 356.695 122.206C359.484 121.56 361.585 119.726 362.146 115.936L362.147 115.936ZM352.393 129.612C351.072 134.913 342.148 132.049 339.253 131.329L341.597 121.932C344.491 122.654 353.769 124.084 352.394 129.612H352.393ZM353.712 115.859C352.508 120.681 345.08 118.231 342.669 117.631L344.794 109.108C347.205 109.709 354.966 110.83 353.712 115.859Z" fill="white"/>
<path d="M471.799 277.572C470.662 277.573 469.572 278.025 468.768 278.829C467.964 279.633 467.512 280.723 467.511 281.86V428.104C467.512 429.241 467.964 430.331 468.768 431.135C469.572 431.939 470.662 432.391 471.799 432.392H970.468C971.604 432.391 972.694 431.939 973.498 431.135C974.302 430.331 974.754 429.241 974.755 428.104V281.86C974.754 280.723 974.302 279.633 973.498 278.829C972.694 278.025 971.604 277.573 970.468 277.572L471.799 277.572Z" fill="#262626"/>
<path d="M478.256 421.647H964.01V288.317H478.256V421.647Z" fill="#0F0F0F"/>
<path d="M902.696 393.987C900.812 393.987 899.006 394.735 897.674 396.067C896.342 397.399 895.593 399.206 895.593 401.09C895.593 402.974 896.342 404.78 897.674 406.112C899.006 407.444 900.812 408.192 902.696 408.192H931.106C932.99 408.192 934.797 407.444 936.129 406.112C937.461 404.78 938.209 402.974 938.209 401.09C938.209 399.206 937.461 397.399 936.129 396.067C934.797 394.735 932.99 393.987 931.106 393.987H902.696Z" fill="#00D492"/>
<path d="M938.209 380.21H610.244V382.079H938.209V380.21Z" fill="#262626"/>
<path d="M541.689 396.351C564.536 396.351 583.058 377.83 583.058 354.982C583.058 332.134 564.536 313.613 541.689 313.613C518.841 313.613 500.319 332.134 500.319 354.982C500.319 377.83 518.841 396.351 541.689 396.351Z" fill="#00D492"/>
<path d="M610.762 369.775L609.725 368.22L643.805 345.5L667.176 356.718L700.79 335.242L701.245 335.435L767.658 363.766L820.909 337.608L872.617 358.57L937.59 301.023L938.829 302.423L872.989 360.738L820.982 339.654L767.713 365.821L700.966 337.348L667.305 358.853L643.957 347.646L610.762 369.775Z" fill="#262626"/>
<path d="M616.317 394.964C614.706 394.964 613.162 395.604 612.023 396.743C610.884 397.882 610.244 399.427 610.244 401.038C610.244 402.648 610.884 404.193 612.023 405.332C613.162 406.471 614.706 407.111 616.317 407.111H679.855C681.465 407.111 683.01 406.471 684.149 405.332C685.288 404.193 685.928 402.648 685.928 401.038C685.928 399.427 685.288 397.882 684.149 396.743C683.01 395.604 681.465 394.964 679.855 394.964H616.317Z" fill="#262626"/>
<path d="M541.684 382.247L558.431 358.662L541.684 368.55L524.947 358.662L541.683 382.247H541.684Z" fill="white"/>
<path d="M541.683 365.381H541.684L558.421 355.488L541.684 327.717H541.683L524.947 355.488L541.683 365.381Z" fill="white"/>
</g>
<defs>
<clipPath id="clip0_0_1">
<rect width="974.755" height="674.095" fill="white"/>
</clipPath>
</defs>
</svg>
